<?xml version="1.0" encoding="UTF-8" standalone="no"?>
<!DOCTYPE svg PUBLIC "-//W3C//DTD SVG 1.1//EN" "http://www.w3.org/Graphics/SVG/1.1/DTD/svg11.dtd">
<svg width="100%" height="100%" viewBox="0 0 210 48" version="1.1" xmlns="http://www.w3.org/2000/svg" xmlns:xlink="http://www.w3.org/1999/xlink" xml:space="preserve" xmlns:serif="http://www.serif.com/" style="fill-rule:evenodd;clip-rule:evenodd;stroke-linejoin:round;stroke-miterlimit:2;">
    <g transform="matrix(1,0,0,1,-2.624,-14.872)">
        <g transform="matrix(1,0,0,1,2,52)">
            <path d="M13.416,0L13.416,-31.512L12.48,-31.512L7.592,-19.968L0.624,-19.968L8.06,-36.4L20.072,-36.4L20.072,0L13.416,0Z" style="fill:white;fill-rule:nonzero;"/>
            <path d="M38.74,0.728C36.244,0.728 33.982,0.208 31.954,-0.832C29.926,-1.872 28.323,-3.38 27.144,-5.356C25.965,-7.332 25.376,-9.724 25.376,-12.532L25.376,-13.26C25.376,-16.068 25.965,-18.46 27.144,-20.436C28.323,-22.412 29.926,-23.92 31.954,-24.96C33.982,-26 36.244,-26.52 38.74,-26.52C41.201,-26.52 43.316,-26.087 45.084,-25.22C46.852,-24.353 48.282,-23.166 49.374,-21.658C50.466,-20.15 51.185,-18.443 51.532,-16.536L45.188,-15.184C45.049,-16.224 44.737,-17.16 44.252,-17.992C43.767,-18.824 43.082,-19.483 42.198,-19.968C41.314,-20.453 40.213,-20.696 38.896,-20.696C37.579,-20.696 36.391,-20.41 35.334,-19.838C34.277,-19.266 33.445,-18.417 32.838,-17.29C32.231,-16.163 31.928,-14.785 31.928,-13.156L31.928,-12.636C31.928,-11.007 32.231,-9.629 32.838,-8.502C33.445,-7.375 34.277,-6.526 35.334,-5.954C36.391,-5.382 37.579,-5.096 38.896,-5.096C40.872,-5.096 42.371,-5.607 43.394,-6.63C44.417,-7.653 45.067,-8.996 45.344,-10.66L51.688,-9.152C51.237,-7.315 50.466,-5.642 49.374,-4.134C48.282,-2.626 46.852,-1.439 45.084,-0.572C43.316,0.295 41.201,0.728 38.74,0.728Z" style="fill:white;fill-rule:nonzero;"/>
            <path d="M64.584,0.728C62.747,0.728 61.1,0.407 59.644,-0.234C58.188,-0.875 57.035,-1.811 56.186,-3.042C55.337,-4.273 54.912,-5.772 54.912,-7.54C54.912,-9.308 55.337,-10.79 56.186,-11.986C57.035,-13.182 58.214,-14.083 59.722,-14.69C61.23,-15.297 62.955,-15.6 64.896,-15.6L71.968,-15.6L71.968,-17.056C71.968,-18.269 71.587,-19.266 70.824,-20.046C70.061,-20.826 68.848,-21.216 67.184,-21.216C65.555,-21.216 64.341,-20.843 63.544,-20.098C62.747,-19.353 62.227,-18.391 61.984,-17.212L55.952,-19.24C56.368,-20.557 57.035,-21.762 57.954,-22.854C58.873,-23.946 60.103,-24.83 61.646,-25.506C63.189,-26.182 65.069,-26.52 67.288,-26.52C70.685,-26.52 73.372,-25.671 75.348,-23.972C77.324,-22.273 78.312,-19.812 78.312,-16.588L78.312,-6.968C78.312,-5.928 78.797,-5.408 79.768,-5.408L81.848,-5.408L81.848,0L77.48,0C76.197,0 75.14,-0.312 74.308,-0.936C73.476,-1.56 73.06,-2.392 73.06,-3.432L73.06,-3.484L72.072,-3.484C71.933,-3.068 71.621,-2.522 71.136,-1.846C70.651,-1.17 69.888,-0.572 68.848,-0.052C67.808,0.468 66.387,0.728 64.584,0.728ZM65.728,-4.576C67.565,-4.576 69.065,-5.087 70.226,-6.11C71.387,-7.133 71.968,-8.493 71.968,-10.192L71.968,-10.712L65.364,-10.712C64.151,-10.712 63.197,-10.452 62.504,-9.932C61.811,-9.412 61.464,-8.684 61.464,-7.748C61.464,-6.812 61.828,-6.049 62.556,-5.46C63.284,-4.871 64.341,-4.576 65.728,-4.576Z" style="fill:white;fill-rule:nonzero;"/>
            <path d="M86.112,0L86.112,-25.792L92.56,-25.792L92.56,-22.88L93.496,-22.88C93.877,-23.92 94.51,-24.683 95.394,-25.168C96.278,-25.653 97.309,-25.896 98.488,-25.896L101.608,-25.896L101.608,-20.072L98.384,-20.072C96.72,-20.072 95.351,-19.63 94.276,-18.746C93.201,-17.862 92.664,-16.501 92.664,-14.664L92.664,0L86.112,0Z" style="fill:white;fill-rule:nonzero;"/>
            <path d="M115.648,0.728C113.603,0.728 111.687,0.217 109.902,-0.806C108.117,-1.829 106.687,-3.328 105.612,-5.304C104.537,-7.28 104,-9.672 104,-12.48L104,-13.312C104,-16.12 104.537,-18.512 105.612,-20.488C106.687,-22.464 108.108,-23.963 109.876,-24.986C111.644,-26.009 113.568,-26.52 115.648,-26.52C117.208,-26.52 118.517,-26.338 119.574,-25.974C120.631,-25.61 121.489,-25.151 122.148,-24.596C122.807,-24.041 123.309,-23.452 123.656,-22.828L124.592,-22.828L124.592,-36.4L131.144,-36.4L131.144,0L124.696,0L124.696,-3.12L123.76,-3.12C123.171,-2.149 122.261,-1.265 121.03,-0.468C119.799,0.329 118.005,0.728 115.648,0.728ZM117.624,-4.992C119.635,-4.992 121.316,-5.642 122.668,-6.942C124.02,-8.242 124.696,-10.14 124.696,-12.636L124.696,-13.156C124.696,-15.652 124.029,-17.55 122.694,-18.85C121.359,-20.15 119.669,-20.8 117.624,-20.8C115.613,-20.8 113.932,-20.15 112.58,-18.85C111.228,-17.55 110.552,-15.652 110.552,-13.156L110.552,-12.636C110.552,-10.14 111.228,-8.242 112.58,-6.942C113.932,-5.642 115.613,-4.992 117.624,-4.992Z" style="fill:white;fill-rule:nonzero;"/>
            <path d="M142.064,0.728C140.643,0.728 139.455,0.269 138.502,-0.65C137.549,-1.569 137.072,-2.756 137.072,-4.212C137.072,-5.668 137.549,-6.855 138.502,-7.774C139.455,-8.693 140.643,-9.152 142.064,-9.152C143.451,-9.152 144.612,-8.693 145.548,-7.774C146.484,-6.855 146.952,-5.668 146.952,-4.212C146.952,-2.756 146.484,-1.569 145.548,-0.65C144.612,0.269 143.451,0.728 142.064,0.728Z" style="fill:white;fill-rule:nonzero;"/>
            <path d="M153.712,0L153.712,-20.384L147.16,-20.384L147.16,-25.792L153.712,-25.792L153.712,-30.576C153.712,-32.344 154.241,-33.757 155.298,-34.814C156.355,-35.871 157.733,-36.4 159.432,-36.4L166.192,-36.4L166.192,-30.992L161.72,-30.992C160.749,-30.992 160.264,-30.472 160.264,-29.432L160.264,-25.792L167.024,-25.792L167.024,-20.384L160.264,-20.384L160.264,0L153.712,0Z" style="fill:white;fill-rule:nonzero;"/>
            <path d="M174.408,10.4L174.408,4.68L188.448,4.68C189.419,4.68 189.904,4.16 189.904,3.12L189.904,-3.38L188.968,-3.38C188.691,-2.791 188.257,-2.201 187.668,-1.612C187.079,-1.023 186.281,-0.537 185.276,-0.156C184.271,0.225 182.988,0.416 181.428,0.416C179.417,0.416 177.658,-0.043 176.15,-0.962C174.642,-1.881 173.472,-3.155 172.64,-4.784C171.808,-6.413 171.392,-8.285 171.392,-10.4L171.392,-25.792L177.944,-25.792L177.944,-10.92C177.944,-8.979 178.421,-7.523 179.374,-6.552C180.327,-5.581 181.688,-5.096 183.456,-5.096C185.467,-5.096 187.027,-5.763 188.136,-7.098C189.245,-8.433 189.8,-10.296 189.8,-12.688L189.8,-25.792L196.352,-25.792L196.352,4.576C196.352,6.344 195.832,7.757 194.792,8.814C193.752,9.871 192.365,10.4 190.632,10.4L174.408,10.4Z" style="fill:white;fill-rule:nonzero;"/>
            <path d="M203.112,0L203.112,-25.792L209.664,-25.792L209.664,0L203.112,0ZM206.388,-28.808C205.209,-28.808 204.213,-29.189 203.398,-29.952C202.583,-30.715 202.176,-31.72 202.176,-32.968C202.176,-34.216 202.583,-35.221 203.398,-35.984C204.213,-36.747 205.209,-37.128 206.388,-37.128C207.601,-37.128 208.607,-36.747 209.404,-35.984C210.201,-35.221 210.6,-34.216 210.6,-32.968C210.6,-31.72 210.201,-30.715 209.404,-29.952C208.607,-29.189 207.601,-28.808 206.388,-28.808Z" style="fill:white;fill-rule:nonzero;"/>
        </g>
    </g>
</svg>
