<?xml version="1.0" encoding="UTF-8" standalone="no"?><!DOCTYPE svg PUBLIC "-//W3C//DTD SVG 1.1//EN" "http://www.w3.org/Graphics/SVG/1.1/DTD/svg11.dtd"><svg width="100%" height="100%" viewBox="0 0 52 38" version="1.1" xmlns="http://www.w3.org/2000/svg" xmlns:xlink="http://www.w3.org/1999/xlink" xml:space="preserve" xmlns:serif="http://www.serif.com/" style="fill-rule:evenodd;clip-rule:evenodd;stroke-linejoin:round;stroke-miterlimit:2;"><path d="M12.792,36.4l0,-31.512l-0.936,0l-4.888,11.544l-6.968,0l7.436,-16.432l12.012,0l0,36.4l-6.656,0Z" style="fill:#fff;fill-rule:nonzero;"/><path d="M38.116,37.128c-2.496,0 -4.758,-0.52 -6.786,-1.56c-2.028,-1.04 -3.631,-2.548 -4.81,-4.524c-1.179,-1.976 -1.768,-4.368 -1.768,-7.176l0,-0.728c0,-2.808 0.589,-5.2 1.768,-7.176c1.179,-1.976 2.782,-3.484 4.81,-4.524c2.028,-1.04 4.29,-1.56 6.786,-1.56c2.461,0 4.576,0.433 6.344,1.3c1.768,0.867 3.198,2.054 4.29,3.562c1.092,1.508 1.811,3.215 2.158,5.122l-6.344,1.352c-0.139,-1.04 -0.451,-1.976 -0.936,-2.808c-0.485,-0.832 -1.17,-1.491 -2.054,-1.976c-0.884,-0.485 -1.985,-0.728 -3.302,-0.728c-1.317,0 -2.505,0.286 -3.562,0.858c-1.057,0.572 -1.889,1.421 -2.496,2.548c-0.607,1.127 -0.91,2.505 -0.91,4.134l0,0.52c0,1.629 0.303,3.007 0.91,4.134c0.607,1.127 1.439,1.976 2.496,2.548c1.057,0.572 2.245,0.858 3.562,0.858c1.976,0 3.475,-0.511 4.498,-1.534c1.023,-1.023 1.673,-2.366 1.95,-4.03l6.344,1.508c-0.451,1.837 -1.222,3.51 -2.314,5.018c-1.092,1.508 -2.522,2.695 -4.29,3.562c-1.768,0.867 -3.883,1.3 -6.344,1.3Z" style="fill:#fff;fill-rule:nonzero;"/></svg>